<svg width="52" height="50" viewBox="0 0 52 50" fill="none" xmlns="http://www.w3.org/2000/svg">
<path d="M33.0231 25C33.0231 31.704 32.1296 37.7425 30.7054 42.0792C29.9919 44.2516 29.1587 45.9554 28.2695 47.1005C27.3728 48.2553 26.509 48.7346 25.7319 48.7346C24.9548 48.7346 24.091 48.2553 23.1943 47.1005C22.3052 45.9554 21.4719 44.2516 20.7585 42.0792C19.3342 37.7425 18.4407 31.704 18.4407 25C18.4407 18.296 19.3342 12.2576 20.7585 7.92085C21.4719 5.74843 22.3052 4.04464 23.1943 2.89956C24.091 1.74475 24.9548 1.26547 25.7319 1.26547C26.509 1.26547 27.3728 1.74475 28.2695 2.89956C29.1587 4.04464 29.9919 5.74843 30.7054 7.92085C32.1296 12.2576 33.0231 18.296 33.0231 25Z" stroke="url(#paint0_linear_78_12)" stroke-width="1.5"/>
<path d="M26 31.7242C19.0209 31.7242 12.7318 30.8643 8.21215 29.4919C5.94764 28.8043 4.1697 28.0007 2.9745 27.1426C1.76131 26.2717 1.28603 25.4504 1.28603 24.7423C1.28603 24.0342 1.76131 23.2128 2.9745 22.3419C4.1697 21.4839 5.94764 20.6802 8.21215 19.9926C12.7318 18.6202 19.0209 17.7603 26 17.7603C32.979 17.7603 39.2681 18.6202 43.7878 19.9926C46.0523 20.6802 47.8302 21.4839 49.0254 22.3419C50.2386 23.2128 50.7139 24.0342 50.7139 24.7423C50.7139 25.4504 50.2386 26.2717 49.0254 27.1426C47.8302 28.0007 46.0523 28.8043 43.7878 29.4919C39.2681 30.8643 32.979 31.7242 26 31.7242Z" stroke="url(#paint1_linear_78_12)" stroke-width="1.5"/>
<path d="M25.732 9.27835L28.4613 22.1179L41.8145 24.7423L28.4613 27.3666L25.732 40.2062L23.0027 27.3666L9.64954 24.7423L23.0027 22.1179L25.732 9.27835Z" fill="url(#paint2_linear_78_12)" stroke="#F8F0FD" stroke-width="1.5"/>
<defs>
<linearGradient id="paint0_linear_78_12" x1="17.6907" y1="25" x2="32.1594" y2="23.0803" gradientUnits="userSpaceOnUse">
<stop stop-color="#FF62B7"/>
<stop offset="1" stop-color="#9F53FF"/>
</linearGradient>
<linearGradient id="paint1_linear_78_12" x1="26" y1="17.0103" x2="27.7108" y2="30.9576" gradientUnits="userSpaceOnUse">
<stop stop-color="#FF62B7"/>
<stop offset="1" stop-color="#9F53FF"/>
</linearGradient>
<linearGradient id="paint2_linear_78_12" x1="9.64954" y1="24.7423" x2="34.6782" y2="14.2266" gradientUnits="userSpaceOnUse">
<stop stop-color="#FF62B7"/>
<stop offset="1" stop-color="#9F53FF"/>
</linearGradient>
</defs>
</svg>
